`                          888      888 888               888 888 
                           888      888 888               888 888 
                           888      888 888               888 888 
              .d88b.   .d88888  .d88888 88888b.   8888b.  888 888 
             d88""88b d88" 888 d88" 888 888 "88b     "88b 888 888 
             888  888 888  888 888  888 888  888 .d888888 888 888 
             Y88..88P Y88b 888 Y88b 888 888 d88P 888  888 888 888 
              "Y88P"   "Y88888  "Y88888 88888P"  "Y888888 888 888 
                                       -links.com 

Free Jimmy (No: Slipp Jimmy fri) is a Norwegian/British computer animated feature film first released in Norwegian language in 2006, and later in English language in 2008. The film was written and directed by acclaimed Norwegian subculture comic book artist Christopher Nielsen. The plot is an adult-oriented black comedy which exlores a wide number of themes, amongst them freedom, nature, tragedy, crime, greed, materialism, urban decay, drug abuse and animal cruelty. A large number of the characters in the film are from director Christopher Nielsen's dark humor-laden comic books.

Free Jimmy was Norway's first computer animated film, and costing in excess of 120 million Norwegian kroner it is the second most expensive Norwegian film to date, behind Max Manus. Several British CGI studios were involved in the production of Free Jimmy, although the film was mostly a Norwegian production. The voice actors for the original Norwegian version included Kristopher Schau, Jan Sælid, Are&Odin, Egil Birkeland, Terje Ragner, Anders T. Andersen and Mikkel Gaup.

British comedy writer and actor Simon Pegg wrote a screenplay for the wider English-speaking world which was subsequently released on DVD on 7 October 2008 by BreakThru Films. Pegg voiced a major character in the English language version. Other voice actors in this version made up an international ensemble cast that includes Woody Harrelson, David Tennant, Kyle MacLachlan, Emilia Fox, Samantha Morton, Jim Broadbent, James Cosmo, Phil Daniels and Jay Simpson.


General
Complete name                    : Free Jimmy
Format                           : AVI
Format/Info                      : Audio Video Interleave
File size                        : 888 MiB
Duration                         : 1h 21mn
Overall bit rate                 : 1 524 Kbps

Video
Format                           : MPEG-4 Visual
Format profile                   : Streaming Video@L1
Format settings, BVOP            : Yes
Format settings, QPel            : No
Format settings, GMC             : No warppoints
Format settings, Matrix          : Default
Muxing mode                      : Packed bitstream
Codec ID                         : XVID
Codec ID/Hint                    : XviD
Duration                         : 1h 21mn
Bit rate                         : 1 320 Kbps
Width                            : 1 024 pixels
Height                           : 582 pixels
Display aspect ratio             : 16/9
Frame rate                       : 29.970 fps
Resolution                       : 24 bits
Colorimetry                      : 4:2:0
Scan type                        : Progressive
Bits/(Pixel*Frame)               : 0.074
Stream size                      : 769 MiB (87%)
Writing library                  : XviD 1.1.0 (UTC 2005-11-22)

Audio
Format                           : MPEG Audio
Format version                   : Version 1
Format profile                   : Layer 3
Codec ID                         : 55
Codec ID/Hint                    : MP3
Duration                         : 1h 21mn
Bit rate mode                    : Constant
Bit rate                         : 192 Kbps
Channel(s)                       : 2 channels
Sampling rate                    : 44.1 KHz
Resolution                       : 16 bits
Video delay                      : 26ms
Stream size                      : 112 MiB (13%)
Alignment                        : Split accross interleaves
Interleave, duration             : 33 ms (1.00 video frame)
Title                            : Audio Stream
Writing library                  : LAME3.92


For more oddball torrents  http://thepiratebay.org/user/oddball-links `                                                                                                            Please seed after downloading `                                                                                            :::===  :::===== :::===== :::====       :::= === :::====  :::====
        :::     :::      :::      :::  ===      :::===== :::  === :::====
         =====  ======   ======   ===  ===      ======== ===  ===   ===  
            === ===      ===      ===  ===      === ==== ===  ===   ===  
        ======  ======== ======== =======       ===  ===  ======    ===  
                                                                         
                  :::=====  :::====  :::===== :::===== :::==== 
                  :::       :::  === :::      :::      :::  ===
                  === ===== =======  ======   ======   ===  ===
                  ===   === === ===  ===      ===      ===  ===
                   =======  ===  === ======== ======== =======